<svg xmlns="http://www.w3.org/2000/svg" version="1.1" xmlns:xlink="http://www.w3.org/1999/xlink" xmlns:svgjs="http://svgjs.dev/svgjs" width="1500" height="1500" viewBox="0 0 1500 1500"><rect width="1500" height="1500" fill="#ffffff"></rect><g transform="matrix(0.6666666666666666,0,0,0.6666666666666666,249.39393939393938,435.99032258064517)"><svg viewBox="0 0 396 248" data-background-color="#ffffff" preserveAspectRatio="xMidYMid meet" height="939" width="1500" xmlns="http://www.w3.org/2000/svg" xmlns:xlink="http://www.w3.org/1999/xlink"><g id="tight-bounds" transform="matrix(1,0,0,1,0.2400000000000091,0.4000000000000057)"><svg viewBox="0 0 395.52 247.2" height="247.2" width="395.52"><g><svg></svg></g><g><svg viewBox="0 0 395.52 247.2" height="247.2" width="395.52"><mask id="73f5fa74-705a-48e7-9bb0-d761042d7f3f"><rect width="640" height="400" fill="white"></rect><g transform="matrix(1,0,0,1,53.8797392685033,37.08)"><svg viewBox="0 0 287.7605214629934 173.04" height="173.04" width="287.7605214629934"><g><svg viewBox="0 0 287.7605214629934 173.04" height="173.04" width="287.7605214629934"><g><svg viewBox="0 0 287.7605214629934 173.04" height="173.04" width="287.7605214629934"><g><svg viewBox="0 0 287.7605214629934 173.04" height="173.04" width="287.7605214629934"><g id="SvgjsG4742"><svg viewBox="0 0 287.7605214629934 173.04" height="173.04" width="287.7605214629934" id="SvgjsSvg4741"><g><svg viewBox="0 0 287.7605214629934 173.04" height="173.04" width="287.7605214629934"><g transform="matrix(1,0,0,1,0,0)"><svg width="287.7605214629934" viewBox="1.3199999999999998 -35.5 59.3 36.06" height="173.04" data-palette-color="#1a3e7a"><path d="M20.34-14.79L20.34-14.79 20.34-14.97Q20.34-15.11 20.03-16.49 19.73-17.87 19.59-18.36 19.46-18.85 18.74-22.06 18.02-25.27 17.14-27.16 16.26-29.05 16.1-29.05 15.94-29.05 15.09-27.12L15.09-27.12Q10.89-17.53 10.89-14.75L10.89-14.75 10.89-14.6Q10.89-13.92 13.13-13.92L13.13-13.92 14.18-13.92 14.4-13.94 16.53-13.92 17.58-13.92 17.77-13.94 18.16-13.94 18.95-13.99Q20.34-13.99 20.34-14.79ZM29.27-2.34L29.27-2.34 29.27-1.9Q29.27-0.95 27.8-0.95 26.32-0.95 25.26-2.17 24.19-3.39 23.12-6.01 22.05-8.62 21.53-9.11L21.53-9.11Q20.39-10.18 16.85-10.18L16.85-10.18Q11.43-10.18 9.89-9.2L9.89-9.2Q8.96-8.62 7.74-5.71 6.52-2.81 6.35-2.51L6.35-2.51Q5.37-0.95 3.88-0.95L3.88-0.95 3.47-0.95Q2.32-0.95 2.32-2.1L2.32-2.1Q2.32-3 3.96-8.13L3.96-8.13Q9.94-26.9 10.95-29.35 11.96-31.79 13.04-33.14 14.11-34.5 15.86-34.5 17.6-34.5 18.77-33.17 19.95-31.84 21.8-27.32L21.8-27.32Q25.34-18.75 27.66-8.84L27.66-8.84Q27.91-7.81 28.59-5.44 29.27-3.08 29.27-2.34ZM40.09-2.49Q39.48-0.81 38.03-0.81 36.59-0.81 36.18-1.71L36.18-1.71Q35.94-2.22 35.94-3.91L35.94-3.91 35.94-5.57 36.08-9.91Q36.11-10.82 36.11-13.21L36.11-13.21 36.11-16.89 36.06-18.63 36.03-20.39Q36.03-21.24 36.01-22.09L36.01-22.09 35.94-24.63 35.94-27.88Q35.94-32.08 36.37-32.91 36.81-33.74 38.38-33.74 39.94-33.74 40.52-31.4L40.52-31.4Q40.92-29.76 41.06-25.24 41.21-20.73 42.16-20.73L42.16-20.73Q43.28-20.73 47.6-25.93 51.93-31.13 52.73-31.88L52.73-31.88Q54.64-33.67 56.27-33.67 57.91-33.67 57.91-32.86L57.91-32.86Q57.91-32.32 53.4-26.32 48.9-20.31 48.9-18.87L48.9-18.87Q48.9-18.46 54.26-9.91 59.62-1.37 59.62-1.2L59.62-1.2Q59.62-0.44 58.42-0.44L58.42-0.44 57.71-0.44Q56.13-0.44 54.67-1.89 53.22-3.34 50.91-7.07 48.61-10.79 47.53-12.11L47.53-12.11Q45.51-14.62 44.17-14.62 42.84-14.62 41.77-12.45L41.77-12.45Q41.06-11.01 40.79-7.34 40.52-3.66 40.09-2.49L40.09-2.49Z" opacity="1" transform="matrix(1,0,0,1,0,0)" fill="black" class="wordmark-text-0" id="SvgjsPath4740" stroke-width="1" stroke="black" stroke-linejoin="round"></path></svg></g></svg></g></svg></g></svg></g></svg></g></svg></g></svg></g></mask><g transform="matrix(1,0,0,1,53.8797392685033,37.08)"><svg viewBox="0 0 287.7605214629934 173.04" height="173.04" width="287.7605214629934"><g><svg viewBox="0 0 287.7605214629934 173.04" height="173.04" width="287.7605214629934"><g><svg viewBox="0 0 287.7605214629934 173.04" height="173.04" width="287.7605214629934"><g><svg viewBox="0 0 287.7605214629934 173.04" height="173.04" width="287.7605214629934"><g id="textblocktransform"><svg viewBox="0 0 287.7605214629934 173.04" height="173.04" width="287.7605214629934" id="textblock"><g><svg viewBox="0 0 287.7605214629934 173.04" height="173.04" width="287.7605214629934"><g transform="matrix(1,0,0,1,0,0)"><svg width="287.7605214629934" viewBox="1.3199999999999998 -35.5 59.3 36.06" height="173.04" data-palette-color="#1a3e7a"><path d="M20.34-14.79L20.34-14.79 20.34-14.97Q20.34-15.11 20.03-16.49 19.73-17.87 19.59-18.36 19.46-18.85 18.74-22.06 18.02-25.27 17.14-27.16 16.26-29.05 16.1-29.05 15.94-29.05 15.09-27.12L15.09-27.12Q10.89-17.53 10.89-14.75L10.89-14.75 10.89-14.6Q10.89-13.92 13.13-13.92L13.13-13.92 14.18-13.92 14.4-13.94 16.53-13.92 17.58-13.92 17.77-13.94 18.16-13.94 18.95-13.99Q20.34-13.99 20.34-14.79ZM29.27-2.34L29.27-2.34 29.27-1.9Q29.27-0.95 27.8-0.95 26.32-0.95 25.26-2.17 24.19-3.39 23.12-6.01 22.05-8.62 21.53-9.11L21.53-9.11Q20.39-10.18 16.85-10.18L16.85-10.18Q11.43-10.18 9.89-9.2L9.89-9.2Q8.96-8.62 7.74-5.71 6.52-2.81 6.35-2.51L6.35-2.51Q5.37-0.95 3.88-0.95L3.88-0.95 3.47-0.95Q2.32-0.95 2.32-2.1L2.32-2.1Q2.32-3 3.96-8.13L3.96-8.13Q9.94-26.9 10.95-29.35 11.96-31.79 13.04-33.14 14.11-34.5 15.86-34.5 17.6-34.5 18.77-33.17 19.95-31.84 21.8-27.32L21.8-27.32Q25.34-18.75 27.66-8.84L27.66-8.84Q27.91-7.81 28.59-5.44 29.27-3.08 29.27-2.34ZM40.09-2.49Q39.48-0.81 38.03-0.81 36.59-0.81 36.18-1.71L36.18-1.71Q35.94-2.22 35.94-3.91L35.94-3.91 35.94-5.57 36.08-9.91Q36.11-10.82 36.11-13.21L36.11-13.21 36.11-16.89 36.06-18.63 36.03-20.39Q36.03-21.24 36.01-22.09L36.01-22.09 35.94-24.63 35.94-27.88Q35.94-32.08 36.37-32.91 36.81-33.74 38.38-33.74 39.94-33.74 40.52-31.4L40.52-31.4Q40.92-29.76 41.06-25.24 41.21-20.73 42.16-20.73L42.16-20.73Q43.28-20.73 47.6-25.93 51.93-31.13 52.73-31.88L52.73-31.88Q54.64-33.67 56.27-33.67 57.91-33.67 57.91-32.86L57.91-32.86Q57.91-32.32 53.4-26.32 48.9-20.31 48.9-18.87L48.9-18.87Q48.9-18.46 54.26-9.91 59.62-1.37 59.62-1.2L59.62-1.2Q59.62-0.44 58.42-0.44L58.42-0.44 57.71-0.44Q56.13-0.44 54.67-1.89 53.22-3.34 50.91-7.07 48.61-10.79 47.53-12.11L47.53-12.11Q45.51-14.62 44.17-14.62 42.84-14.62 41.77-12.45L41.77-12.45Q41.06-11.01 40.79-7.34 40.52-3.66 40.09-2.49L40.09-2.49Z" opacity="1" transform="matrix(1,0,0,1,0,0)" fill="#1a3e7a" class="wordmark-text-0" data-fill-palette-color="primary" id="text-0"></path></svg></g></svg></g></svg></g></svg></g></svg></g></svg></g></svg></g><g mask="url(#73f5fa74-705a-48e7-9bb0-d761042d7f3f)"><g transform="matrix(5.217021276595744, 0, 0, 5.217021276595744, 51.68340425531915, 1)"><svg xmlns="http://www.w3.org/2000/svg" xmlns:xlink="http://www.w3.org/1999/xlink" version="1.1" x="0" y="0" viewBox="11 19 56 47" enable-background="new 0 0 80 80" xml:space="preserve" height="47" width="56" class="icon-none" data-fill-palette-color="accent" id="none"><g fill="#ff6b35" data-fill-palette-color="accent"><g fill="#ff6b35" data-fill-palette-color="accent"><path fill="#ff6b35" d="M64 66H14C12.3 66 11 64.7 11 63V28C11 26.3 12.3 25 14 25H64C65.7 25 67 26.3 67 28V63C67 64.7 65.7 66 64 66M14 27C13.4 27 13 27.4 13 28V63C13 63.6 13.4 64 14 64H64C64.6 64 65 63.6 65 63V28C65 27.4 64.6 27 64 27z" data-fill-palette-color="accent"></path></g><g fill="#ff6b35" data-fill-palette-color="accent"><path fill="#ff6b35" d="M47 25H45C45 22.8 43.2 21 41 21H37C34.8 21 33 22.8 33 25H31C31 21.7 33.7 19 37 19H41C44.3 19 47 21.7 47 25" data-fill-palette-color="accent"></path></g><g fill="#ff6b35" data-fill-palette-color="accent"><rect x="12" y="39" fill="#ff6b35" width="24" height="2" data-fill-palette-color="accent"></rect></g><g fill="#ff6b35" data-fill-palette-color="accent"><rect x="42" y="39" fill="#ff6b35" width="24" height="2" data-fill-palette-color="accent"></rect></g><g fill="#ff6b35" data-fill-palette-color="accent"><path fill="#ff6b35" d="M43 44H34.9V36H43zM36.9 42H41V38H36.9z" data-fill-palette-color="accent"></path></g></g></svg></g></g></svg></g><defs></defs></svg><rect width="395.52" height="247.2" fill="none" stroke="none" visibility="hidden"></rect></g></svg></g></svg>